<?xml version="1.0"?>
<svg xmlns="http://www.w3.org/2000/svg" viewBox="0 0 24 24">
    <path d="M 11 2 L 11 4.1875 C 9.8416201 4.6029772 9 5.6985646 9 7 C 9 7.812661 9.3190677 8.5535315 9.84375 9.09375 L 7.21875 14 L 5 14 L 5 16 L 6.15625 16 L 4 20 L 5.1875 22 L 8.40625 16 L 11 16 L 11 17 L 13 17 L 13 16 L 15.59375 16 L 18.8125 22 L 20 20 L 17.84375 16 L 19 16 L 19 14 L 16.78125 14 L 14.15625 9.09375 C 14.680932 8.5535315 15 7.812661 15 7 C 15 5.6985646 14.15838 4.6029772 13 4.1875 L 13 2 L 11 2 z M 12 6 C 12.551 6 13 6.449 13 7 C 13 7.551 12.551 8 12 8 C 11.449 8 11 7.551 11 7 C 11 6.449 11.449 6 12 6 z M 11.65625 9.96875 C 11.772318 9.9823868 11.880265 10 12 10 C 12.119735 10 12.227682 9.9823868 12.34375 9.96875 L 14.53125 14 L 13 14 L 13 13 L 11 13 L 11 14 L 9.46875 14 L 11.65625 9.96875 z"/>
</svg>
